PathFileType	4	(X/Y/Z)	/Users/niels/Desktop/University/Third Semester/Perception and Action/Exam/Gymnastics Motion Tracking/Code for Gym Tracking/Analyzed Data/Webcam_Backflip/id4_1_pure_Sports2D/id4_1_pure_Sports2D_px_person00.trc
DataRate	CameraRate	NumFrames	NumMarkers	Units	OrigDataRate	OrigDataStartFrame	OrigNumFrames
29.8125	29.8125	7	22	m	29.8125	40	160
Frame#	Time	Hip			RHip			RKnee			RAnkle			RBigToe			RSmallToe			RHeel			LHip			LKnee			LAnkle			LBigToe			LSmallToe			LHeel			Neck			Head			Nose			RShoulder			RElbow			RWrist			LShoulder			LElbow			LWrist		
		X1	Y1	Z1	X2	Y2	Z2	X3	Y3	Z3	X4	Y4	Z4	X5	Y5	Z5	X6	Y6	Z6	X7	Y7	Z7	X8	Y8	Z8	X9	Y9	Z9	X10	Y10	Z10	X11	Y11	Z11	X12	Y12	Z12	X13	Y13	Z13	X14	Y14	Z14	X15	Y15	Z15	X16	Y16	Z16	X17	Y17	Z17	X18	Y18	Z18	X19	Y19	Z19	X20	Y20	Z20	X21	Y21	Z21	X22	Y22	Z22
40	1.341719077568134	0.8894732338071037	-0.4782646949594703	0.0	0.8871529460332448	-0.4780427051858504	0.0	0.8966386589764037	-0.5973780057369077	0.0	0.8573084893513401	-0.6986429164132457	0.0	0.8869795948825114	-0.7328779990539614	0.0	0.8798378127886275	-0.7342197697293072	0.0	0.8421978132917276	-0.7087790481356994	0.0	0.8919585570823193	-0.4774886014293183	0.0	0.8939712497861126	-0.5973009821070011	0.0	0.8589916391500858	-0.6974969675612915	0.0	0.8935987829788867	-0.7310063261717877	0.0	0.8862077836945169	-0.7264746110663595	0.0	0.8427043832613367	-0.7081278821175643	0.0	1.0157855929007855	-0.41033426115316796	0.0	1.0867204919468025	-0.3913548532709332	0.0	1.058479684343402	-0.41490906122011795	0.0	1.0063523828284142	-0.4163711026876347	0.0	1.0302035962910443	-0.47231126502094883	0.0	1.0825976563173865	-0.5092702371441894	0.0	1.0051774085440384	-0.4065216308682883	0.0	1.0253136309949766	-0.4518875021323523	0.0	1.0531342338949337	-0.47310839200866533	0.0
41	1.3752620545073373	0.8885158143168694	-0.5256910847188844	0.0	0.8868852463502802	-0.5256374504077242	0.0	0.9066871078969194	-0.6420673227871112	0.0	0.8791314426191087	-0.7507808852312879	0.0	0.9100770356072487	-0.7783508058486969	0.0	0.9028109694264592	-0.7820109398290624	0.0	0.8651925802707948	-0.762727999725091	0.0	0.8906127113808351	-0.5245734674417037	0.0	0.904049845971829	-0.6420950702334377	0.0	0.8795774329300716	-0.7484230041841337	0.0	0.9160181969894082	-0.7761109987179331	0.0	0.9067547342423149	-0.7722393060644271	0.0	0.8645390528619558	-0.7604954443027625	0.0	0.9982124956529534	-0.4312241373371705	0.0	1.0633498547622853	-0.3969549524999583	0.0	1.0409514004688465	-0.42495103625746755	0.0	0.9902321999177979	-0.43889149967652613	0.0	1.0372793451115572	-0.47948588509548173	0.0	1.0992645883996377	-0.496569908489895	0.0	0.988632653329724	-0.429067161187134	0.0	1.027574965097668	-0.45421514171507715	0.0	1.056909715312348	-0.4522552783805759	0.0
42	1.4088050314465406	0.8893720864034339	-0.5722047817598809	0.0	0.8882183370165143	-0.5725778128421065	0.0	0.9160024411210765	-0.6857458440831776	0.0	0.8941992262385625	-0.795206355395361	0.0	0.9249803748828689	-0.8173651255973591	0.0	0.9170163658260726	-0.8228048855396108	0.0	0.881022766058027	-0.8069240785206778	0.0	0.8910063572007045	-0.5709307530934568	0.0	0.9135737466021898	-0.6856197670370235	0.0	0.8938211732776573	-0.7921573139846543	0.0	0.9302329039200837	-0.8151757176496257	0.0	0.9192736493715461	-0.8112847811553582	0.0	0.8797843109700817	-0.803733265975388	0.0	0.9799677026343259	-0.45686600997852705	0.0	1.0378593001847207	-0.410164840512324	0.0	1.0215139666827835	-0.4408057375984398	0.0	0.9734062906436541	-0.4651238225350829	0.0	1.0367159022837589	-0.48454496412343384	0.0	1.1015367948072639	-0.4805934843971007	0.0	0.971506366536808	-0.4557512649670067	0.0	1.0225110351824434	-0.45844010903428056	0.0	1.0505045893140441	-0.4352708638081028	0.0
43	1.442348008385744	0.8912022992458069	-0.6139247205031281	0.0	0.8902604043418142	-0.6148763392080089	0.0	0.9233915532255109	-0.7246647117648738	0.0	0.9021729851826518	-0.8305205241580481	0.0	0.9325191054645225	-0.8485827802640324	0.0	0.9232616735492205	-0.8551265978808498	0.0	0.8893168450890653	-0.8406984264970946	0.0	0.892547568065799	-0.6126767189889908	0.0	0.9212324355847079	-0.7242831235631131	0.0	0.9014495731726184	-0.8272938045403738	0.0	0.9366089971088039	-0.8475103972181142	0.0	0.924247751462006	-0.8425256404453517	0.0	0.8878589672254252	-0.837132477597277	0.0	0.9627073244793851	-0.4834372945770932	0.0	1.0129134387487377	-0.4276722312630086	0.0	1.0022199946950174	-0.459594510036564	0.0	0.9572799784018865	-0.49145854832086655	0.0	1.0290849660412285	-0.48832078447982374	0.0	1.091187493567908	-0.4649237463999706	0.0	0.9554090841964806	-0.48297648291884476	0.0	1.0120780258288378	-0.4652156002105369	0.0	1.0390628142126068	-0.4261750862662621	0.0
44	1.4758909853249473	0.8930984552315562	-0.6469275777536938	0.0	0.8920605832487565	-0.6483964140867394	0.0	0.928247274051682	-0.7547823099980161	0.0	0.9045648448895403	-0.8552080260648082	0.0	0.9346383513635332	-0.8702604951999791	0.0	0.9238524922816964	-0.8771051261648269	0.0	0.8918968663434256	-0.8635426315862563	0.0	0.8944674154089901	-0.6457488796123417	0.0	0.9262965224578922	-0.7541968393276416	0.0	0.903829694831508	-0.8521614364549349	0.0	0.9367943699790164	-0.8717581757234406	0.0	0.9234534219806133	-0.8645843020365295	0.0	0.8902024459335567	-0.8598746110647935	0.0	0.9476395101828191	-0.5063914449908196	0.0	0.9904968723412587	-0.4446192284628607	0.0	0.9846190823607279	-0.4771899104384881	0.0	0.9428557927279797	-0.5138000199289663	0.0	1.0163894909521878	-0.49061996547123443	0.0	1.072338716361802	-0.4513606771834202	0.0	0.9415590825480553	-0.5064777987685252	0.0	0.9992967258890855	-0.47262453498421503	0.0	1.0273204513509486	-0.4235398694009667	0.0
45	1.5094339622641506	0.8942492455406238	-0.6679610486358804	0.0	0.8928466854353495	-0.6696600564250239	0.0	0.9307623381281839	-0.7728700040168821	0.0	0.9037042464816476	-0.8684643576737554	0.0	0.9338521456331915	-0.8815183010389465	0.0	0.9219043108618106	-0.8879785431880005	0.0	0.8913984150126538	-0.8756407104630841	0.0	0.8958586086724221	-0.6667474009949794	0.0	0.9288034664545335	-0.7722011103801663	0.0	0.9029867270836228	-0.8657902209484328	0.0	0.9334750639702416	-0.8863952856407475	0.0	0.9196811663507775	-0.8767667625096116	0.0	0.8891046281190939	-0.871877607037549	0.0	0.935204917549985	-0.5216084502795234	0.0	0.9718193833480842	-0.45594737894061577	0.0	0.9696541342536694	-0.48912993990715053	0.0	0.930597626024006	-0.5283833089593472	0.0	1.0013916559037497	-0.4900576375956035	0.0	1.0500664334231322	-0.4396282866316386	0.0	0.9304476195396377	-0.52224850601445	0.0	0.9869127474760948	-0.4775817586630355	0.0	1.0177006598464993	-0.42326411599439	0.0
46	1.542976939203354	0.8940463157619576	-0.6750979659355466	0.0	0.892118777923087	-0.676639341922976	0.0	0.9316361093672878	-0.7772177610444163	0.0	0.9018394616565021	-0.870306614051825	0.0	0.9326712512155437	-0.8825585495028897	0.0	0.9205194930016843	-0.8882830302830983	0.0	0.8901449259897714	-0.8776114375237326	0.0	0.8959126057512076	-0.6736837312783958	0.0	0.929347607915419	-0.7765705830956441	0.0	0.9008583825704038	-0.8680462842668684	0.0	0.9295042676542049	-0.8897875685618714	0.0	0.9160155710859473	-0.8790481037350742	0.0	0.8868008996998512	-0.8736901358486483	0.0	0.9250947746842705	-0.5262530508652847	0.0	0.9573925011327099	-0.4578263945841591	0.0	0.9577033847201636	-0.4918310512138158	0.0	0.9203813366095747	-0.5324550535979766	0.0	0.986695032973827	-0.4847159120678117	0.0	1.0288403847667567	-0.4280527706014575	0.0	0.9218470193559157	-0.5273642085992926	0.0	0.9765115262450729	-0.47708552569745377	0.0	1.0106898548593033	-0.42132211532149855	0.0
